<?xml version="1.0" encoding="UTF-8" standalone="no"?>
<!DOCTYPE svg PUBLIC "-//W3C//DTD SVG 1.1//EN" "http://www.w3.org/Graphics/SVG/1.1/DTD/svg11.dtd">
<svg width="100%" height="100%" viewBox="0 0 256 251" version="1.1" xmlns="http://www.w3.org/2000/svg" xmlns:xlink="http://www.w3.org/1999/xlink" xml:space="preserve" xmlns:serif="http://www.serif.com/" style="fill-rule:evenodd;clip-rule:evenodd;stroke-linejoin:round;stroke-miterlimit:2;">
    <g transform="matrix(0.730567,0,0,0.730567,34.4874,33.708)">
        <path d="M76.02,64.287C86.789,73.023 99.59,78.897 113.235,81.364L113.235,8.556L128.064,0L142.88,8.556L142.88,81.364C156.529,78.895 169.333,73.021 180.108,64.287L207.028,79.857C163.246,123.173 92.754,123.173 48.972,79.857L76.02,64.287ZM108.737,250.215C124.35,190.623 89.072,129.57 29.645,113.34L29.645,144.492C42.599,149.449 54.092,157.596 63.058,168.178L0,204.582L0,221.706L14.828,230.216L77.875,193.812C82.561,206.865 83.873,220.891 81.689,234.586L108.737,250.215ZM226.413,113.34C167.018,129.606 131.779,190.645 147.39,250.215L174.369,234.633C172.19,220.937 173.502,206.912 178.183,193.858L241.183,230.216L256,221.66L256,204.582L192.942,168.178C201.911,157.598 213.403,149.452 226.355,144.492L226.413,113.34Z" style="fill:white;fill-rule:nonzero;"/>
    </g>
</svg>
